<?xml version="1.0" encoding="UTF-8" standalone="no"?>
<svg
   xmlns:dc="http://purl.org/dc/elements/1.1/"
   xmlns:cc="http://creativecommons.org/ns#"
   xmlns:rdf="http://www.w3.org/1999/02/22-rdf-syntax-ns#"
   xmlns:svg="http://www.w3.org/2000/svg"
   xmlns="http://www.w3.org/2000/svg"
   xmlns:sodipodi="http://sodipodi.sourceforge.net/DTD/sodipodi-0.dtd"
   xmlns:inkscape="http://www.inkscape.org/namespaces/inkscape"
   width="2499"
   height="2500"
   viewBox="0 0 1372.201 1372.684"
   version="1.1"
   id="svg46"
   sodipodi:docname="arduino.svg"
   inkscape:version="1.0.2 (e86c870879, 2021-01-15)">
  <metadata
     id="metadata52">
    <rdf:RDF>
      <cc:Work
         rdf:about="">
        <dc:format>image/svg+xml</dc:format>
        <dc:type
           rdf:resource="http://purl.org/dc/dcmitype/StillImage" />
      </cc:Work>
    </rdf:RDF>
  </metadata>
  <defs
     id="defs50" />
  <sodipodi:namedview
     pagecolor="#ffffff"
     bordercolor="#666666"
     borderopacity="1"
     objecttolerance="10"
     gridtolerance="10"
     guidetolerance="10"
     inkscape:pageopacity="0"
     inkscape:pageshadow="2"
     inkscape:window-width="1920"
     inkscape:window-height="1020"
     id="namedview48"
     showgrid="false"
     inkscape:zoom="0.1702"
     inkscape:cx="1696.1719"
     inkscape:cy="1598.9263"
     inkscape:window-x="3000"
     inkscape:window-y="190"
     inkscape:window-maximized="1"
     inkscape:current-layer="svg46" />
  <path
     fill="#00979D"
     stroke="#81C9CB"
     stroke-width=".932"
     stroke-miterlimit="10"
     d="M1371.701 686.024c0 378.658-306.972 685.605-685.549 685.605C307.451 1371.629.5 1064.682.5 686.024.5 307.455 307.451.483 686.152.483c378.594.001 685.549 306.972 685.549 685.541z"
     id="path2"
     style="fill:#000000;fill-opacity:1" />
  <linearGradient
     id="a"
     gradientUnits="userSpaceOnUse"
     x1="-16.3"
     y1="16.071"
     x2="1354.901"
     y2="16.071"
     gradientTransform="matrix(1 0 0 -1 16.8 702.696)">
    <stop
       offset=".117"
       stop-color="#fff"
       stop-opacity="0"
       id="stop4" />
    <stop
       offset=".252"
       stop-color="#c0d1d3"
       stop-opacity=".153"
       id="stop6" />
    <stop
       offset=".387"
       stop-color="#91b3b7"
       stop-opacity=".306"
       id="stop8" />
    <stop
       offset=".52"
       stop-color="#6d9fa3"
       stop-opacity=".457"
       id="stop10" />
    <stop
       offset=".65"
       stop-color="#4d9195"
       stop-opacity=".604"
       id="stop12" />
    <stop
       offset=".776"
       stop-color="#30888b"
       stop-opacity=".746"
       id="stop14" />
    <stop
       offset=".895"
       stop-color="#148386"
       stop-opacity=".881"
       id="stop16" />
    <stop
       offset="1"
       stop-color="#008184"
       id="stop18" />
  </linearGradient>
  <linearGradient
     id="b"
     gradientUnits="userSpaceOnUse"
     x1="-16.8"
     y1="16.071"
     x2="1355.401"
     y2="16.071"
     gradientTransform="matrix(1,0,0,-1,1312.63,1069.7128)">
    <stop
       offset="0"
       stop-color="#fff"
       stop-opacity="0"
       id="stop21" />
    <stop
       offset=".153"
       stop-color="#c0d1d3"
       stop-opacity=".153"
       id="stop23" />
    <stop
       offset=".306"
       stop-color="#91b3b7"
       stop-opacity=".306"
       id="stop25" />
    <stop
       offset=".457"
       stop-color="#6d9fa3"
       stop-opacity=".457"
       id="stop27" />
    <stop
       offset=".604"
       stop-color="#4d9195"
       stop-opacity=".604"
       id="stop29" />
    <stop
       offset=".746"
       stop-color="#30888b"
       stop-opacity=".746"
       id="stop31" />
    <stop
       offset=".881"
       stop-color="#148386"
       stop-opacity=".881"
       id="stop33" />
    <stop
       offset="1"
       stop-color="#008184"
       id="stop35" />
  </linearGradient>
  <g
     fill="#FFF"
     id="g44">
    <path
       d="M947.959 931.196c-12.909 0-26.127-.929-39.127-2.864-108.978-15.554-181.848-93.822-222.665-153.989-40.946 60.166-113.811 138.512-222.74 154.045a275.864 275.864 0 0 1-39.133 2.785c-67.753 0-131.358-25.217-179.201-71.003-48.299-46.165-74.951-108.114-74.951-174.171 0-66.14 26.651-128.004 75.021-174.253 47.797-45.793 111.449-70.936 179.231-70.936 12.918 0 26.067.928 39.023 2.783 108.932 15.535 181.794 93.813 222.743 153.99 40.825-60.177 113.689-138.432 222.658-153.99 13-1.863 26.148-2.783 39.066-2.783 67.753 0 131.401 25.208 179.197 70.936 48.345 46.249 74.937 108.113 74.937 174.253 0 66.057-26.524 128.006-74.868 174.171-47.881 45.785-111.434 71.026-179.191 71.026M734.42 686.024c21.283 40.534 84.067 141.676 186.692 156.375 8.984 1.236 18.028 1.923 26.839 1.923 92.185 0 167.225-71.002 167.225-158.322s-75.023-158.321-167.291-158.321c-8.812 0-17.853.629-26.753 1.921-102.644 14.664-165.428 115.806-186.712 156.424M424.393 527.702c-92.308 0-167.36 70.998-167.36 158.321 0 87.305 75.021 158.322 167.245 158.322 8.852 0 17.897-.688 26.879-1.922 102.629-14.697 165.394-115.783 186.689-156.375-21.237-40.535-84.061-141.761-186.689-156.376-8.877-1.341-17.945-1.97-26.764-1.97"
       id="path40" />
    <path
       d="M354.37 662.051h152.625v49.181H354.37zM1016.484 662.051h-51.671v-51.747h-49.348v51.747h-51.648v49.181h51.648v51.737h49.348v-51.737h51.671z"
       id="path42" />
  </g>
</svg>
